<?xml version="1.0" encoding="UTF-8" standalone="no"?>
<!DOCTYPE svg PUBLIC "-//W3C//DTD SVG 1.1//EN"
 "http://www.w3.org/Graphics/SVG/1.1/DTD/svg11.dtd">
<!-- Generated by graphviz version 2.40.1 (20161225.0304)
 -->
<!-- Title: dependencies Pages: 1 -->
<svg width="4897pt" height="284pt"
 viewBox="0.00 0.00 4897.00 284.00" xmlns="http://www.w3.org/2000/svg" xmlns:xlink="http://www.w3.org/1999/xlink">
<g id="graph0" class="graph" transform="scale(1 1) rotate(0) translate(4 280)">
<title>dependencies</title>
<polygon fill="#ffffff" stroke="transparent" points="-4,4 -4,-280 4893,-280 4893,4 -4,4"/>
<text text-anchor="start" x="2423.5091" y="-42.4" font-family="sans-serif" font-weight="bold" font-size="14.00" fill="#000000">Legend</text>
<polygon fill="#ffffb3" stroke="transparent" points="2210.5,-10 2210.5,-30 2230.5,-30 2230.5,-10 2210.5,-10"/>
<text text-anchor="start" x="2234.129" y="-15.4" font-family="sans-serif" font-size="14.00" fill="#000000"> &#160;Declarations</text>
<polygon fill="#8dd3c7" stroke="transparent" points="2323.5,-10 2323.5,-30 2343.5,-30 2343.5,-10 2323.5,-10"/>
<text text-anchor="start" x="2347.2251" y="-15.4" font-family="sans-serif" font-size="14.00" fill="#000000"> &#160;Module</text>
<polygon fill="#80b1d3" stroke="transparent" points="2409.5,-10 2409.5,-30 2429.5,-30 2429.5,-10 2409.5,-10"/>
<text text-anchor="start" x="2433.2812" y="-15.4" font-family="sans-serif" font-size="14.00" fill="#000000"> &#160;Bootstrap</text>
<polygon fill="#fdb462" stroke="transparent" points="2506.5,-10 2506.5,-30 2526.5,-30 2526.5,-10 2506.5,-10"/>
<text text-anchor="start" x="2530.1732" y="-15.4" font-family="sans-serif" font-size="14.00" fill="#000000"> &#160;Providers</text>
<polygon fill="#fb8072" stroke="transparent" points="2602.5,-10 2602.5,-30 2622.5,-30 2622.5,-10 2602.5,-10"/>
<text text-anchor="start" x="2626.2258" y="-15.4" font-family="sans-serif" font-size="14.00" fill="#000000"> &#160;Exports</text>
<g id="clust1" class="cluster">
<title>cluster_AppModule</title>
<polygon fill="none" stroke="#000000" stroke-dasharray="1,5" points="8,-70 8,-268 4881,-268 4881,-70 8,-70"/>
</g>
<g id="clust2" class="cluster">
<title>cluster_AppModule_declarations</title>
<polygon fill="none" stroke="#000000" points="1368,-78 1368,-130 4873,-130 4873,-78 1368,-78"/>
</g>
<g id="clust26" class="cluster">
<title>cluster_AppModule_imports</title>
<polygon fill="none" stroke="#000000" points="1091,-78 1091,-130 1360,-130 1360,-78 1091,-78"/>
</g>
<g id="clust28" class="cluster">
<title>cluster_AppModule_bootstrap</title>
<polygon fill="none" stroke="#000000" points="2461,-208 2461,-260 2585,-260 2585,-208 2461,-208"/>
</g>
<g id="clust29" class="cluster">
<title>cluster_AppModule_providers</title>
<polygon fill="none" stroke="#000000" points="16,-78 16,-130 1083,-130 1083,-78 16,-78"/>
</g>
<!-- AppComponent -->
<g id="node1" class="node">
<title>AppComponent</title>
<polygon fill="#ffffb3" stroke="#000000" points="4864.9399,-122 4759.0601,-122 4759.0601,-86 4864.9399,-86 4864.9399,-122"/>
<text text-anchor="middle" x="4812" y="-99.8" font-family="Times,serif" font-size="14.00" fill="#000000">AppComponent</text>
</g>
<!-- AppModule -->
<g id="node24" class="node">
<title>AppModule</title>
<polygon fill="#8dd3c7" stroke="#000000" points="2564.6571,-187 2561.6571,-191 2540.6571,-191 2537.6571,-187 2481.3429,-187 2481.3429,-151 2564.6571,-151 2564.6571,-187"/>
<text text-anchor="middle" x="2523" y="-164.8" font-family="Times,serif" font-size="14.00" fill="#000000">AppModule</text>
</g>
<!-- AppComponent&#45;&gt;AppModule -->
<g id="edge1" class="edge">
<title>AppComponent&#45;&gt;AppModule</title>
<path fill="none" stroke="#000000" d="M4812,-122.3802C4812,-146.2785 4812,-185 4812,-185 4812,-185 2574.6839,-185 2574.6839,-185"/>
<polygon fill="#000000" stroke="#000000" points="2574.6839,-181.5001 2564.6839,-185 2574.6838,-188.5001 2574.6839,-181.5001"/>
</g>
<!-- BuscadorComponent -->
<g id="node2" class="node">
<title>BuscadorComponent</title>
<polygon fill="#ffffb3" stroke="#000000" points="4741.2036,-122 4606.7964,-122 4606.7964,-86 4741.2036,-86 4741.2036,-122"/>
<text text-anchor="middle" x="4674" y="-99.8" font-family="Times,serif" font-size="14.00" fill="#000000">BuscadorComponent</text>
</g>
<!-- BuscadorComponent&#45;&gt;AppModule -->
<g id="edge2" class="edge">
<title>BuscadorComponent&#45;&gt;AppModule</title>
<path fill="none" stroke="#000000" d="M4674,-122.3228C4674,-145.6602 4674,-183 4674,-183 4674,-183 2575.0026,-183 2575.0026,-183"/>
<polygon fill="#000000" stroke="#000000" points="2575.0026,-179.5001 2565.0026,-183 2575.0025,-186.5001 2575.0026,-179.5001"/>
</g>
<!-- CampaingComponent -->
<g id="node3" class="node">
<title>CampaingComponent</title>
<polygon fill="#ffffb3" stroke="#000000" points="4588.3795,-122 4449.6205,-122 4449.6205,-86 4588.3795,-86 4588.3795,-122"/>
<text text-anchor="middle" x="4519" y="-99.8" font-family="Times,serif" font-size="14.00" fill="#000000">CampaingComponent</text>
</g>
<!-- CampaingComponent&#45;&gt;AppModule -->
<g id="edge3" class="edge">
<title>CampaingComponent&#45;&gt;AppModule</title>
<path fill="none" stroke="#000000" d="M4519,-122.0109C4519,-144.4852 4519,-180 4519,-180 4519,-180 2574.6893,-180 2574.6893,-180"/>
<polygon fill="#000000" stroke="#000000" points="2574.6893,-176.5001 2564.6893,-180 2574.6893,-183.5001 2574.6893,-176.5001"/>
</g>
<!-- CarroComponent -->
<g id="node4" class="node">
<title>CarroComponent</title>
<polygon fill="#ffffb3" stroke="#000000" points="4431.705,-122 4318.295,-122 4318.295,-86 4431.705,-86 4431.705,-122"/>
<text text-anchor="middle" x="4375" y="-99.8" font-family="Times,serif" font-size="14.00" fill="#000000">CarroComponent</text>
</g>
<!-- CarroComponent&#45;&gt;AppModule -->
<g id="edge4" class="edge">
<title>CarroComponent&#45;&gt;AppModule</title>
<path fill="none" stroke="#000000" d="M4375,-122.2921C4375,-144.2057 4375,-178 4375,-178 4375,-178 2574.7187,-178 2574.7187,-178"/>
<polygon fill="#000000" stroke="#000000" points="2574.7187,-174.5001 2564.7187,-178 2574.7187,-181.5001 2574.7187,-174.5001"/>
</g>
<!-- CrearOrdenComponent -->
<g id="node5" class="node">
<title>CrearOrdenComponent</title>
<polygon fill="#ffffb3" stroke="#000000" points="4300.9017,-122 4153.0983,-122 4153.0983,-86 4300.9017,-86 4300.9017,-122"/>
<text text-anchor="middle" x="4227" y="-99.8" font-family="Times,serif" font-size="14.00" fill="#000000">CrearOrdenComponent</text>
</g>
<!-- CrearOrdenComponent&#45;&gt;AppModule -->
<g id="edge5" class="edge">
<title>CrearOrdenComponent&#45;&gt;AppModule</title>
<path fill="none" stroke="#000000" d="M4227,-122.2843C4227,-143.3211 4227,-175 4227,-175 4227,-175 2574.6984,-175 2574.6984,-175"/>
<polygon fill="#000000" stroke="#000000" points="2574.6985,-171.5001 2564.6984,-175 2574.6984,-178.5001 2574.6985,-171.5001"/>
</g>
<!-- DatalleEventoComponent -->
<g id="node6" class="node">
<title>DatalleEventoComponent</title>
<polygon fill="#ffffb3" stroke="#000000" points="4135.9129,-122 3974.0871,-122 3974.0871,-86 4135.9129,-86 4135.9129,-122"/>
<text text-anchor="middle" x="4055" y="-99.8" font-family="Times,serif" font-size="14.00" fill="#000000">DatalleEventoComponent</text>
</g>
<!-- DatalleEventoComponent&#45;&gt;AppModule -->
<g id="edge6" class="edge">
<title>DatalleEventoComponent&#45;&gt;AppModule</title>
<path fill="none" stroke="#000000" d="M4055,-122.1289C4055,-142.5724 4055,-173 4055,-173 4055,-173 2574.7718,-173 2574.7718,-173"/>
<polygon fill="#000000" stroke="#000000" points="2574.7719,-169.5001 2564.7718,-173 2574.7718,-176.5001 2574.7719,-169.5001"/>
</g>
<!-- DatosUsuarioComponent -->
<g id="node7" class="node">
<title>DatosUsuarioComponent</title>
<polygon fill="#ffffb3" stroke="#000000" points="3956.3061,-122 3797.6939,-122 3797.6939,-86 3956.3061,-86 3956.3061,-122"/>
<text text-anchor="middle" x="3877" y="-99.8" font-family="Times,serif" font-size="14.00" fill="#000000">DatosUsuarioComponent</text>
</g>
<!-- DatosUsuarioComponent&#45;&gt;AppModule -->
<g id="edge7" class="edge">
<title>DatosUsuarioComponent&#45;&gt;AppModule</title>
<path fill="none" stroke="#000000" d="M3877,-122.308C3877,-142.1455 3877,-171 3877,-171 3877,-171 2575.0073,-171 2575.0073,-171"/>
<polygon fill="#000000" stroke="#000000" points="2575.0073,-167.5001 2565.0073,-171 2575.0072,-174.5001 2575.0073,-167.5001"/>
</g>
<!-- DetalleOrdenComponent -->
<g id="node8" class="node">
<title>DetalleOrdenComponent</title>
<polygon fill="#ffffb3" stroke="#000000" points="3779.2366,-122 3622.7634,-122 3622.7634,-86 3779.2366,-86 3779.2366,-122"/>
<text text-anchor="middle" x="3701" y="-99.8" font-family="Times,serif" font-size="14.00" fill="#000000">DetalleOrdenComponent</text>
</g>
<!-- DetalleOrdenComponent&#45;&gt;AppModule -->
<g id="edge8" class="edge">
<title>DetalleOrdenComponent&#45;&gt;AppModule</title>
<path fill="none" stroke="#000000" d="M3701,-122.1686C3701,-141.0898 3701,-168 3701,-168 3701,-168 2574.9256,-168 2574.9256,-168"/>
<polygon fill="#000000" stroke="#000000" points="2574.9257,-164.5001 2564.9256,-168 2574.9256,-171.5001 2574.9257,-164.5001"/>
</g>
<!-- FechaBuscadorComponent -->
<g id="node9" class="node">
<title>FechaBuscadorComponent</title>
<polygon fill="#ffffb3" stroke="#000000" points="3604.6302,-122 3437.3698,-122 3437.3698,-86 3604.6302,-86 3604.6302,-122"/>
<text text-anchor="middle" x="3521" y="-99.8" font-family="Times,serif" font-size="14.00" fill="#000000">FechaBuscadorComponent</text>
</g>
<!-- FechaBuscadorComponent&#45;&gt;AppModule -->
<g id="edge9" class="edge">
<title>FechaBuscadorComponent&#45;&gt;AppModule</title>
<path fill="none" stroke="#000000" d="M3521,-122.2667C3521,-140.5552 3521,-166 3521,-166 3521,-166 2574.9283,-166 2574.9283,-166"/>
<polygon fill="#000000" stroke="#000000" points="2574.9283,-162.5001 2564.9283,-166 2574.9282,-169.5001 2574.9283,-162.5001"/>
</g>
<!-- HotelesComponent -->
<g id="node10" class="node">
<title>HotelesComponent</title>
<polygon fill="#ffffb3" stroke="#000000" points="3419.094,-122 3294.906,-122 3294.906,-86 3419.094,-86 3419.094,-122"/>
<text text-anchor="middle" x="3357" y="-99.8" font-family="Times,serif" font-size="14.00" fill="#000000">HotelesComponent</text>
</g>
<!-- HotelesComponent&#45;&gt;AppModule -->
<g id="edge10" class="edge">
<title>HotelesComponent&#45;&gt;AppModule</title>
<path fill="none" stroke="#000000" d="M3357,-122.0225C3357,-139.3734 3357,-163 3357,-163 3357,-163 2574.9297,-163 2574.9297,-163"/>
<polygon fill="#000000" stroke="#000000" points="2574.9298,-159.5001 2564.9297,-163 2574.9297,-166.5001 2574.9298,-159.5001"/>
</g>
<!-- LoginComponent -->
<g id="node11" class="node">
<title>LoginComponent</title>
<polygon fill="#ffffb3" stroke="#000000" points="3277.2758,-122 3162.7242,-122 3162.7242,-86 3277.2758,-86 3277.2758,-122"/>
<text text-anchor="middle" x="3220" y="-99.8" font-family="Times,serif" font-size="14.00" fill="#000000">LoginComponent</text>
</g>
<!-- LoginComponent&#45;&gt;AppModule -->
<g id="edge11" class="edge">
<title>LoginComponent&#45;&gt;AppModule</title>
<path fill="none" stroke="#000000" d="M3220,-122.0352C3220,-138.7344 3220,-161 3220,-161 3220,-161 2574.7717,-161 2574.7717,-161"/>
<polygon fill="#000000" stroke="#000000" points="2574.7717,-157.5001 2564.7717,-161 2574.7716,-164.5001 2574.7717,-157.5001"/>
</g>
<!-- MessageComponent -->
<g id="node12" class="node">
<title>MessageComponent</title>
<polygon fill="#ffffb3" stroke="#000000" points="3144.3104,-122 3013.6896,-122 3013.6896,-86 3144.3104,-86 3144.3104,-122"/>
<text text-anchor="middle" x="3079" y="-99.8" font-family="Times,serif" font-size="14.00" fill="#000000">MessageComponent</text>
</g>
<!-- MessageComponent&#45;&gt;AppModule -->
<g id="edge12" class="edge">
<title>MessageComponent&#45;&gt;AppModule</title>
<path fill="none" stroke="#000000" d="M3079,-122.0091C3079,-138.0494 3079,-159 3079,-159 3079,-159 2574.7904,-159 2574.7904,-159"/>
<polygon fill="#000000" stroke="#000000" points="2574.7904,-155.5001 2564.7904,-159 2574.7903,-162.5001 2574.7904,-155.5001"/>
</g>
<!-- NavegadorComponent -->
<g id="node13" class="node">
<title>NavegadorComponent</title>
<polygon fill="#ffffb3" stroke="#000000" points="2995.2436,-122 2852.7564,-122 2852.7564,-86 2995.2436,-86 2995.2436,-122"/>
<text text-anchor="middle" x="2924" y="-99.8" font-family="Times,serif" font-size="14.00" fill="#000000">NavegadorComponent</text>
</g>
<!-- NavegadorComponent&#45;&gt;AppModule -->
<g id="edge13" class="edge">
<title>NavegadorComponent&#45;&gt;AppModule</title>
<path fill="none" stroke="#000000" d="M2924,-122.1871C2924,-137.1824 2924,-156 2924,-156 2924,-156 2574.7792,-156 2574.7792,-156"/>
<polygon fill="#000000" stroke="#000000" points="2574.7793,-152.5001 2564.7792,-156 2574.7792,-159.5001 2574.7793,-152.5001"/>
</g>
<!-- OrdenesComponent -->
<g id="node14" class="node">
<title>OrdenesComponent</title>
<polygon fill="#ffffb3" stroke="#000000" points="2834.9734,-122 2707.0266,-122 2707.0266,-86 2834.9734,-86 2834.9734,-122"/>
<text text-anchor="middle" x="2771" y="-99.8" font-family="Times,serif" font-size="14.00" fill="#000000">OrdenesComponent</text>
</g>
<!-- OrdenesComponent&#45;&gt;AppModule -->
<g id="edge14" class="edge">
<title>OrdenesComponent&#45;&gt;AppModule</title>
<path fill="none" stroke="#000000" d="M2771,-122.0511C2771,-136.373 2771,-154 2771,-154 2771,-154 2574.7894,-154 2574.7894,-154"/>
<polygon fill="#000000" stroke="#000000" points="2574.7894,-150.5001 2564.7894,-154 2574.7893,-157.5001 2574.7894,-150.5001"/>
</g>
<!-- PanelBuscadorComponent -->
<g id="node15" class="node">
<title>PanelBuscadorComponent</title>
<polygon fill="#ffffb3" stroke="#000000" points="2688.8061,-122 2523.1939,-122 2523.1939,-86 2688.8061,-86 2688.8061,-122"/>
<text text-anchor="middle" x="2606" y="-99.8" font-family="Times,serif" font-size="14.00" fill="#000000">PanelBuscadorComponent</text>
</g>
<!-- PanelBuscadorComponent&#45;&gt;AppModule -->
<g id="edge15" class="edge">
<title>PanelBuscadorComponent&#45;&gt;AppModule</title>
<path fill="none" stroke="#000000" d="M2544.0877,-122.1061C2544.0877,-122.1061 2544.0877,-140.991 2544.0877,-140.991"/>
<polygon fill="#000000" stroke="#000000" points="2540.5877,-140.9909 2544.0877,-150.991 2547.5877,-140.991 2540.5877,-140.9909"/>
</g>
<!-- PaquetesComponent -->
<g id="node16" class="node">
<title>PaquetesComponent</title>
<polygon fill="#ffffb3" stroke="#000000" points="2505.594,-122 2374.406,-122 2374.406,-86 2505.594,-86 2505.594,-122"/>
<text text-anchor="middle" x="2440" y="-99.8" font-family="Times,serif" font-size="14.00" fill="#000000">PaquetesComponent</text>
</g>
<!-- PaquetesComponent&#45;&gt;AppModule -->
<g id="edge16" class="edge">
<title>PaquetesComponent&#45;&gt;AppModule</title>
<path fill="none" stroke="#000000" d="M2493.3594,-122.1061C2493.3594,-122.1061 2493.3594,-140.991 2493.3594,-140.991"/>
<polygon fill="#000000" stroke="#000000" points="2489.8595,-140.9909 2493.3594,-150.991 2496.8595,-140.991 2489.8595,-140.9909"/>
</g>
<!-- PasosCompraComponent -->
<g id="node17" class="node">
<title>PasosCompraComponent</title>
<polygon fill="#ffffb3" stroke="#000000" points="2356.3215,-122 2197.6785,-122 2197.6785,-86 2356.3215,-86 2356.3215,-122"/>
<text text-anchor="middle" x="2277" y="-99.8" font-family="Times,serif" font-size="14.00" fill="#000000">PasosCompraComponent</text>
</g>
<!-- PasosCompraComponent&#45;&gt;AppModule -->
<g id="edge17" class="edge">
<title>PasosCompraComponent&#45;&gt;AppModule</title>
<path fill="none" stroke="#000000" d="M2277,-122.0511C2277,-136.373 2277,-154 2277,-154 2277,-154 2471.2695,-154 2471.2695,-154"/>
<polygon fill="#000000" stroke="#000000" points="2471.2695,-157.5001 2481.2695,-154 2471.2694,-150.5001 2471.2695,-157.5001"/>
</g>
<!-- ProductoComponent -->
<g id="node18" class="node">
<title>ProductoComponent</title>
<polygon fill="#ffffb3" stroke="#000000" points="2179.8809,-122 2048.1191,-122 2048.1191,-86 2179.8809,-86 2179.8809,-122"/>
<text text-anchor="middle" x="2114" y="-99.8" font-family="Times,serif" font-size="14.00" fill="#000000">ProductoComponent</text>
</g>
<!-- ProductoComponent&#45;&gt;AppModule -->
<g id="edge18" class="edge">
<title>ProductoComponent&#45;&gt;AppModule</title>
<path fill="none" stroke="#000000" d="M2114,-122.1871C2114,-137.1824 2114,-156 2114,-156 2114,-156 2471.1519,-156 2471.1519,-156"/>
<polygon fill="#000000" stroke="#000000" points="2471.1519,-159.5001 2481.1519,-156 2471.1519,-152.5001 2471.1519,-159.5001"/>
</g>
<!-- RegistroComponent -->
<g id="node19" class="node">
<title>RegistroComponent</title>
<polygon fill="#ffffb3" stroke="#000000" points="2030.2702,-122 1901.7298,-122 1901.7298,-86 2030.2702,-86 2030.2702,-122"/>
<text text-anchor="middle" x="1966" y="-99.8" font-family="Times,serif" font-size="14.00" fill="#000000">RegistroComponent</text>
</g>
<!-- RegistroComponent&#45;&gt;AppModule -->
<g id="edge19" class="edge">
<title>RegistroComponent&#45;&gt;AppModule</title>
<path fill="none" stroke="#000000" d="M1966,-122.0091C1966,-138.0494 1966,-159 1966,-159 1966,-159 2471.1345,-159 2471.1345,-159"/>
<polygon fill="#000000" stroke="#000000" points="2471.1345,-162.5001 2481.1345,-159 2471.1344,-155.5001 2471.1345,-162.5001"/>
</g>
<!-- TableComponent -->
<g id="node20" class="node">
<title>TableComponent</title>
<polygon fill="#ffffb3" stroke="#000000" points="1883.705,-122 1770.295,-122 1770.295,-86 1883.705,-86 1883.705,-122"/>
<text text-anchor="middle" x="1827" y="-99.8" font-family="Times,serif" font-size="14.00" fill="#000000">TableComponent</text>
</g>
<!-- TableComponent&#45;&gt;AppModule -->
<g id="edge20" class="edge">
<title>TableComponent&#45;&gt;AppModule</title>
<path fill="none" stroke="#000000" d="M1827,-122.0352C1827,-138.7344 1827,-161 1827,-161 1827,-161 2471.2883,-161 2471.2883,-161"/>
<polygon fill="#000000" stroke="#000000" points="2471.2883,-164.5001 2481.2883,-161 2471.2882,-157.5001 2471.2883,-164.5001"/>
</g>
<!-- UserComponent -->
<g id="node21" class="node">
<title>UserComponent</title>
<polygon fill="#ffffb3" stroke="#000000" points="1752.7591,-122 1645.2409,-122 1645.2409,-86 1752.7591,-86 1752.7591,-122"/>
<text text-anchor="middle" x="1699" y="-99.8" font-family="Times,serif" font-size="14.00" fill="#000000">UserComponent</text>
</g>
<!-- UserComponent&#45;&gt;AppModule -->
<g id="edge21" class="edge">
<title>UserComponent&#45;&gt;AppModule</title>
<path fill="none" stroke="#000000" d="M1699,-122.0225C1699,-139.3734 1699,-163 1699,-163 1699,-163 2471.2894,-163 2471.2894,-163"/>
<polygon fill="#000000" stroke="#000000" points="2471.2894,-166.5001 2481.2894,-163 2471.2893,-159.5001 2471.2894,-166.5001"/>
</g>
<!-- VuelosComponent -->
<g id="node22" class="node">
<title>VuelosComponent</title>
<polygon fill="#ffffb3" stroke="#000000" points="1627.4888,-122 1506.5112,-122 1506.5112,-86 1627.4888,-86 1627.4888,-122"/>
<text text-anchor="middle" x="1567" y="-99.8" font-family="Times,serif" font-size="14.00" fill="#000000">VuelosComponent</text>
</g>
<!-- VuelosComponent&#45;&gt;AppModule -->
<g id="edge22" class="edge">
<title>VuelosComponent&#45;&gt;AppModule</title>
<path fill="none" stroke="#000000" d="M1567,-122.2667C1567,-140.5552 1567,-166 1567,-166 1567,-166 2471.3072,-166 2471.3072,-166"/>
<polygon fill="#000000" stroke="#000000" points="2471.3072,-169.5001 2481.3072,-166 2471.3071,-162.5001 2471.3072,-169.5001"/>
</g>
<!-- homeComponent -->
<g id="node23" class="node">
<title>homeComponent</title>
<polygon fill="#ffffb3" stroke="#000000" points="1488.4385,-122 1375.5615,-122 1375.5615,-86 1488.4385,-86 1488.4385,-122"/>
<text text-anchor="middle" x="1432" y="-99.8" font-family="Times,serif" font-size="14.00" fill="#000000">homeComponent</text>
</g>
<!-- homeComponent&#45;&gt;AppModule -->
<g id="edge23" class="edge">
<title>homeComponent&#45;&gt;AppModule</title>
<path fill="none" stroke="#000000" d="M1432,-122.1686C1432,-141.0898 1432,-168 1432,-168 1432,-168 2471.2325,-168 2471.2325,-168"/>
<polygon fill="#000000" stroke="#000000" points="2471.2325,-171.5001 2481.2325,-168 2471.2324,-164.5001 2471.2325,-171.5001"/>
</g>
<!-- AppComponent  -->
<g id="node27" class="node">
<title>AppComponent </title>
<polygon fill="#80b1d3" stroke="#000000" points="2577.439,-252 2468.561,-252 2468.561,-216 2577.439,-216 2577.439,-252"/>
<text text-anchor="middle" x="2523" y="-229.8" font-family="Times,serif" font-size="14.00" fill="#000000">AppComponent </text>
</g>
<!-- AppModule&#45;&gt;AppComponent  -->
<g id="edge26" class="edge">
<title>AppModule&#45;&gt;AppComponent </title>
<path fill="none" stroke="#000000" stroke-dasharray="1,5" d="M2523,-187.1061C2523,-187.1061 2523,-205.991 2523,-205.991"/>
<polygon fill="#000000" stroke="#000000" points="2519.5001,-205.9909 2523,-215.991 2526.5001,-205.991 2519.5001,-205.9909"/>
</g>
<!-- AppRoutingModule -->
<g id="node25" class="node">
<title>AppRoutingModule</title>
<polygon fill="#8dd3c7" stroke="#000000" points="1352.2744,-122 1349.2744,-126 1328.2744,-126 1325.2744,-122 1223.7256,-122 1223.7256,-86 1352.2744,-86 1352.2744,-122"/>
<text text-anchor="middle" x="1288" y="-99.8" font-family="Times,serif" font-size="14.00" fill="#000000">AppRoutingModule</text>
</g>
<!-- AppRoutingModule&#45;&gt;AppModule -->
<g id="edge24" class="edge">
<title>AppRoutingModule&#45;&gt;AppModule</title>
<path fill="none" stroke="#000000" d="M1288,-122.308C1288,-142.1455 1288,-171 1288,-171 1288,-171 2471.2017,-171 2471.2017,-171"/>
<polygon fill="#000000" stroke="#000000" points="2471.2017,-174.5001 2481.2017,-171 2471.2016,-167.5001 2471.2017,-174.5001"/>
</g>
<!-- MaterialModule -->
<g id="node26" class="node">
<title>MaterialModule</title>
<polygon fill="#8dd3c7" stroke="#000000" points="1205.4706,-122 1202.4706,-126 1181.4706,-126 1178.4706,-122 1098.5294,-122 1098.5294,-86 1205.4706,-86 1205.4706,-122"/>
<text text-anchor="middle" x="1152" y="-99.8" font-family="Times,serif" font-size="14.00" fill="#000000">MaterialModule</text>
</g>
<!-- MaterialModule&#45;&gt;AppModule -->
<g id="edge25" class="edge">
<title>MaterialModule&#45;&gt;AppModule</title>
<path fill="none" stroke="#000000" d="M1152,-122.1289C1152,-142.5724 1152,-173 1152,-173 1152,-173 2471.2201,-173 2471.2201,-173"/>
<polygon fill="#000000" stroke="#000000" points="2471.2201,-176.5001 2481.2201,-173 2471.2201,-169.5001 2471.2201,-176.5001"/>
</g>
<!-- AuthenticationService -->
<g id="node28" class="node">
<title>AuthenticationService</title>
<ellipse fill="#fdb462" stroke="#000000" cx="978" cy="-104" rx="97.2683" ry="18"/>
<text text-anchor="middle" x="978" y="-99.8" font-family="Times,serif" font-size="14.00" fill="#000000">AuthenticationService</text>
</g>
<!-- AuthenticationService&#45;&gt;AppModule -->
<g id="edge27" class="edge">
<title>AuthenticationService&#45;&gt;AppModule</title>
<path fill="none" stroke="#000000" d="M978,-122.2843C978,-143.3211 978,-175 978,-175 978,-175 2471.2752,-175 2471.2752,-175"/>
<polygon fill="#000000" stroke="#000000" points="2471.2753,-178.5001 2481.2752,-175 2471.2752,-171.5001 2471.2753,-178.5001"/>
</g>
<!-- StorageConfigService -->
<g id="node29" class="node">
<title>StorageConfigService</title>
<ellipse fill="#fdb462" stroke="#000000" cx="766" cy="-104" rx="96.1266" ry="18"/>
<text text-anchor="middle" x="766" y="-99.8" font-family="Times,serif" font-size="14.00" fill="#000000">StorageConfigService</text>
</g>
<!-- StorageConfigService&#45;&gt;AppModule -->
<g id="edge28" class="edge">
<title>StorageConfigService&#45;&gt;AppModule</title>
<path fill="none" stroke="#000000" d="M766,-122.2921C766,-144.2057 766,-178 766,-178 766,-178 2471.3013,-178 2471.3013,-178"/>
<polygon fill="#000000" stroke="#000000" points="2471.3013,-181.5001 2481.3013,-178 2471.3012,-174.5001 2471.3013,-181.5001"/>
</g>
<!-- StorageParamsCompraService -->
<g id="node30" class="node">
<title>StorageParamsCompraService</title>
<ellipse fill="#fdb462" stroke="#000000" cx="523" cy="-104" rx="129.0482" ry="18"/>
<text text-anchor="middle" x="523" y="-99.8" font-family="Times,serif" font-size="14.00" fill="#000000">StorageParamsCompraService</text>
</g>
<!-- StorageParamsCompraService&#45;&gt;AppModule -->
<g id="edge29" class="edge">
<title>StorageParamsCompraService&#45;&gt;AppModule</title>
<path fill="none" stroke="#000000" d="M523,-122.0109C523,-144.4852 523,-180 523,-180 523,-180 2471.2272,-180 2471.2272,-180"/>
<polygon fill="#000000" stroke="#000000" points="2471.2272,-183.5001 2481.2272,-180 2471.2271,-176.5001 2471.2272,-183.5001"/>
</g>
<!-- StorageParamsService -->
<g id="node31" class="node">
<title>StorageParamsService</title>
<ellipse fill="#fdb462" stroke="#000000" cx="278" cy="-104" rx="97.8266" ry="18"/>
<text text-anchor="middle" x="278" y="-99.8" font-family="Times,serif" font-size="14.00" fill="#000000">StorageParamsService</text>
</g>
<!-- StorageParamsService&#45;&gt;AppModule -->
<g id="edge30" class="edge">
<title>StorageParamsService&#45;&gt;AppModule</title>
<path fill="none" stroke="#000000" d="M278,-122.3228C278,-145.6602 278,-183 278,-183 278,-183 2471.143,-183 2471.143,-183"/>
<polygon fill="#000000" stroke="#000000" points="2471.143,-186.5001 2481.143,-183 2471.1429,-179.5001 2471.143,-186.5001"/>
</g>
<!-- StorageService -->
<g id="node32" class="node">
<title>StorageService</title>
<ellipse fill="#fdb462" stroke="#000000" cx="93" cy="-104" rx="69.4781" ry="18"/>
<text text-anchor="middle" x="93" y="-99.8" font-family="Times,serif" font-size="14.00" fill="#000000">StorageService</text>
</g>
<!-- StorageService&#45;&gt;AppModule -->
<g id="edge31" class="edge">
<title>StorageService&#45;&gt;AppModule</title>
<path fill="none" stroke="#000000" d="M93,-122.3802C93,-146.2785 93,-185 93,-185 93,-185 2471.3341,-185 2471.3341,-185"/>
<polygon fill="#000000" stroke="#000000" points="2471.3341,-188.5001 2481.3341,-185 2471.334,-181.5001 2471.3341,-188.5001"/>
</g>
</g>
</svg>
