<?xml version="1.0" encoding="iso-8859-1"?>
<!-- Generator: Adobe Illustrator 19.0.0, SVG Export Plug-In . SVG Version: 6.00 Build 0)  -->
<svg version="1.1" id="Capa_1" xmlns="http://www.w3.org/2000/svg" xmlns:xlink="http://www.w3.org/1999/xlink" x="0px" y="0px"
	 viewBox="0 0 512 512" style="enable-background:new 0 0 512 512;" xml:space="preserve">
<path style="fill:#E82934;" d="M212.175,353.377l93.24,157.624c0.373,0.62,1.043,0.999,1.766,0.999h202.755
	c1.742,0,2.698-2.028,1.589-3.372L304.302,257.554l-85.242,14.95L212.175,353.377z"/>
<path style="fill:#C7232C;" d="M511.525,508.628L304.302,257.554l-19.715,3.457L471.18,508.628c1.109,1.344,0.153,3.372-1.589,3.372
	h40.345C511.678,512,512.634,509.972,511.525,508.628z"/>
<path style="fill:#2EE3FF;" d="M0.304,3.132l96.217,157.576c13.35,21.922,37.162,35.3,62.828,35.3h96.211
	c1.733,0,2.692-2.01,1.601-3.357L121.716,27.365C107.698,10.056,86.614,0,64.34,0H2.064C0.456,0-0.532,1.759,0.304,3.132z"/>
<path style="fill:#1FA2D1;" d="M257.161,192.651L121.716,27.365C107.698,10.056,86.614,0,64.34,0H39.237
	c22.274,0,43.358,10.056,57.376,27.365l123.558,165.286c1.091,1.347,0.132,3.357-1.601,3.357h36.99
	C257.293,196.008,258.252,193.998,257.161,192.651z"/>
<path style="fill:#CCCCCC;" d="M384.051,259.832c-11.229-1.689-45.822-5.058-91.387,8.035
	c-59.359,17.05-73.606,97.373-73.606,97.373l-35.006-60.317l-8.726-15.03l-4.677-8.046c-3.121-5.388-5.079-11.425-5.378-17.647
	c-1.113-23.251,18.069-42.814,105.583-45.802c84.063-2.874,109.065,27.537,115.277,38.374
	C386.988,258.266,385.751,260.09,384.051,259.832z"/>
<path style="fill:#A6A6A6;" d="M384.051,259.832c-11.229-1.689-45.822-5.058-91.387,8.035
	c-59.359,17.05-73.606,97.373-73.606,97.373l-35.006-60.317c10.48-17.331,34.002-45.201,69.544-53.731
	C339.445,230.589,384.051,259.832,384.051,259.832z"/>
<g>
</g>
<g>
</g>
<g>
</g>
<g>
</g>
<g>
</g>
<g>
</g>
<g>
</g>
<g>
</g>
<g>
</g>
<g>
</g>
<g>
</g>
<g>
</g>
<g>
</g>
<g>
</g>
<g>
</g>
</svg>
